<?xml version="1.0" encoding="UTF-8" standalone="no"?>
<!DOCTYPE svg PUBLIC "-//W3C//DTD SVG 1.1//EN" "http://www.w3.org/Graphics/SVG/1.1/DTD/svg11.dtd">
<svg xmlns="http://www.w3.org/2000/svg" version="1.1" viewBox="0.00 0.00 256.00 256.00" width="256.00" height="256.00">
<path stroke="#95979f" stroke-width="2.00" fill="none" stroke-linecap="butt" vector-effect="non-scaling-stroke" d="
  M 39.53 99.75
  A 0.28 0.28 0.0 0 1 39.38 99.71
  L 38.82 99.37
  A 0.28 0.28 0.0 0 0 38.40 99.61
  L 38.40 221.97
  A 0.28 0.28 0.0 0 0 38.68 222.25
  L 106.15 222.25
  A 0.28 0.28 0.0 0 0 106.43 221.97
  L 106.78 168.28
  A 0.28 0.28 0.0 0 1 107.06 168.00
  L 214.22 168.00
  A 0.28 0.28 0.0 0 0 214.50 167.72
  L 214.50 46.03
  A 0.28 0.28 0.0 0 0 214.22 45.75
  L 145.53 45.75
  A 0.28 0.28 0.0 0 0 145.25 46.03
  L 145.25 99.47
  A 0.28 0.28 0.0 0 1 144.97 99.75
  L 39.53 99.75"
/>
<path fill="#2a2f3f" d="
  M 0.00 0.00
  L 256.00 0.00
  L 256.00 256.00
  L 0.00 256.00
  L 0.00 0.00
  Z
  M 39.53 99.75
  A 0.28 0.28 0.0 0 1 39.38 99.71
  L 38.82 99.37
  A 0.28 0.28 0.0 0 0 38.40 99.61
  L 38.40 221.97
  A 0.28 0.28 0.0 0 0 38.68 222.25
  L 106.15 222.25
  A 0.28 0.28 0.0 0 0 106.43 221.97
  L 106.78 168.28
  A 0.28 0.28 0.0 0 1 107.06 168.00
  L 214.22 168.00
  A 0.28 0.28 0.0 0 0 214.50 167.72
  L 214.50 46.03
  A 0.28 0.28 0.0 0 0 214.22 45.75
  L 145.53 45.75
  A 0.28 0.28 0.0 0 0 145.25 46.03
  L 145.25 99.47
  A 0.28 0.28 0.0 0 1 144.97 99.75
  L 39.53 99.75
  Z"
/>
<path fill="#ffffff" d="
  M 39.53 99.75
  L 144.97 99.75
  A 0.28 0.28 0.0 0 0 145.25 99.47
  L 145.25 46.03
  A 0.28 0.28 0.0 0 1 145.53 45.75
  L 214.22 45.75
  A 0.28 0.28 0.0 0 1 214.50 46.03
  L 214.50 167.72
  A 0.28 0.28 0.0 0 1 214.22 168.00
  L 107.06 168.00
  A 0.28 0.28 0.0 0 0 106.78 168.28
  L 106.43 221.97
  A 0.28 0.28 0.0 0 1 106.15 222.25
  L 38.68 222.25
  A 0.28 0.28 0.0 0 1 38.40 221.97
  L 38.40 99.61
  A 0.28 0.28 0.0 0 1 38.82 99.37
  L 39.38 99.71
  A 0.28 0.28 0.0 0 0 39.53 99.75
  Z"
/>
</svg>
