<svg width="473" height="177" viewBox="0 0 473 177" fill="none" xmlns="http://www.w3.org/2000/svg">
<rect width="472.967" height="177" rx="34.8197" fill="#383E50"/>
<path d="M59.4519 76.6098H29.0147C27.4131 76.6098 26.1147 77.9082 26.1147 79.5098V116.067C26.1147 117.668 27.4131 118.967 29.0147 118.967H47.6193C49.221 118.967 50.5193 117.668 50.5193 116.067V103.289C50.5193 101.687 51.8177 100.389 53.4193 100.389H83.1169C84.7185 100.389 86.0169 99.0907 86.0169 97.4891V60.9322C86.0169 59.3306 84.7185 58.0322 83.1169 58.0322H65.2519C63.6502 58.0322 62.3519 59.3306 62.3519 60.9322V73.7098C62.3519 75.3114 61.0535 76.6098 59.4519 76.6098Z" fill="white"/>
<path d="M105.245 116.378V60.6206C105.245 59.1911 104.086 58.0322 102.656 58.0322C101.227 58.0322 100.068 59.1911 100.068 60.6206V116.378C100.068 117.808 101.227 118.967 102.656 118.967C104.086 118.967 105.245 117.808 105.245 116.378Z" fill="white"/>
<path d="M119.296 116.067V60.9322C119.296 59.3306 120.594 58.0322 122.196 58.0322H148.196C149.797 58.0322 151.096 59.3306 151.096 60.9322V67.765C151.096 69.3666 149.797 70.665 148.196 70.665H135.507C133.906 70.665 132.607 71.9633 132.607 73.565V79.6546C132.607 81.2562 133.906 82.5546 135.507 82.5546H148.196C149.797 82.5546 151.096 83.853 151.096 85.4546V90.8012C151.096 92.4028 149.797 93.7012 148.196 93.7012H135.507C133.906 93.7012 132.607 94.9995 132.607 96.6012V116.067C132.607 117.668 131.309 118.967 129.707 118.967H122.196C120.594 118.967 119.296 117.668 119.296 116.067Z" fill="white"/>
<path d="M156.273 67.765V60.9322C156.273 59.3306 157.571 58.0322 159.173 58.0322H177.526C178.132 58.0322 178.724 58.2225 179.216 58.5762L187.603 64.5955C188.362 65.1402 188.812 66.0172 188.812 66.9515V85.4341C188.812 86.4186 188.312 87.3359 187.486 87.8701L179.177 93.2371C178.708 93.54 178.162 93.7012 177.603 93.7012H159.173C157.571 93.7012 156.273 92.4028 156.273 90.8012V85.4546C156.273 83.853 157.571 82.5546 159.173 82.5546H171.861C173.462 82.5546 174.761 81.2562 174.761 79.6546V73.565C174.761 71.9633 173.462 70.665 171.861 70.665H159.173C157.571 70.665 156.273 69.3666 156.273 67.765Z" fill="white"/>
<path d="M199.905 107.986V60.9322C199.905 59.3306 201.203 58.0322 202.805 58.0322H210.317C211.918 58.0322 213.217 59.3306 213.217 60.9322V102.691C213.217 104.292 214.515 105.591 216.117 105.591H229.544C231.146 105.591 232.444 106.889 232.444 108.491V116.067C232.444 117.668 231.146 118.967 229.544 118.967H212.084C211.384 118.967 210.707 118.713 210.179 118.254L200.9 110.173C200.268 109.622 199.905 108.825 199.905 107.986Z" fill="white"/>
<path d="M256.849 102.691V60.9322C256.849 59.3306 258.147 58.0322 259.749 58.0322H267.261C268.862 58.0322 270.161 59.3306 270.161 60.9322V107.986C270.161 108.825 269.798 109.622 269.165 110.173L259.886 118.254C259.358 118.713 258.682 118.967 257.982 118.967H240.521C238.92 118.967 237.621 117.668 237.621 116.067V108.491C237.621 106.889 238.92 105.591 240.521 105.591H253.949C255.551 105.591 256.849 104.292 256.849 102.691Z" fill="white"/>
<path d="M287.17 114.58V60.9322C287.17 59.3306 288.468 58.0322 290.07 58.0322H316.809C318.411 58.0322 319.709 59.3306 319.709 60.9322V67.765C319.709 69.3666 318.411 70.665 316.809 70.665H304.121C302.519 70.665 301.221 71.9633 301.221 73.565V79.6546C301.221 81.2562 302.519 82.5546 304.121 82.5546H316.809C318.411 82.5546 319.709 83.853 319.709 85.4546V90.8012C319.709 92.4028 318.411 93.7012 316.809 93.7012H304.121C302.519 93.7012 301.221 94.9995 301.221 96.6012V114.58C301.221 116.182 299.923 117.48 298.321 117.48H290.07C288.468 117.48 287.17 116.182 287.17 114.58Z" fill="white"/>
<path d="M324.146 67.765V60.9322C324.146 59.3306 325.445 58.0322 327.046 58.0322H345.995C346.69 58.0322 347.361 58.2816 347.888 58.7349L356.418 66.0817C357.058 66.6327 357.425 67.4349 357.425 68.2791V82.0129C357.425 83.2308 356.665 84.3188 355.521 84.7368L350.504 86.57C349.775 86.8362 349.291 87.5291 349.291 88.3047C349.291 88.8941 349.572 89.4481 350.048 89.7959L356.237 94.3185C356.984 94.8646 357.425 95.7345 357.425 96.6599V114.58C357.425 116.182 356.127 117.48 354.525 117.48H347.753C346.152 117.48 344.853 116.182 344.853 114.58V96.6012C344.853 94.9995 343.555 93.7012 341.953 93.7012H327.046C325.445 93.7012 324.146 92.4028 324.146 90.8012V85.4546C324.146 83.853 325.445 82.5546 327.046 82.5546H341.953C343.555 82.5546 344.853 81.2562 344.853 79.6546V73.565C344.853 71.9633 343.555 70.665 341.953 70.665H327.046C325.445 70.665 324.146 69.3666 324.146 67.765Z" fill="white"/>
<path d="M374.435 114.58V60.9322C374.435 59.3306 375.733 58.0322 377.335 58.0322H403.335C404.936 58.0322 406.235 59.3306 406.235 60.9322V67.765C406.235 69.3666 404.936 70.665 403.335 70.665H389.907C388.305 70.665 387.007 71.9633 387.007 73.565V79.6546C387.007 81.2562 388.305 82.5546 389.907 82.5546H403.335C404.936 82.5546 406.235 83.853 406.235 85.4546V90.8012C406.235 92.4028 404.936 93.7012 403.335 93.7012H389.907C388.305 93.7012 387.007 94.9995 387.007 96.6012V102.691C387.007 104.292 388.305 105.591 389.907 105.591H403.335C404.936 105.591 406.235 106.889 406.235 108.491V114.58C406.235 116.182 404.936 117.48 403.335 117.48H377.335C375.733 117.48 374.435 116.182 374.435 114.58Z" fill="white"/>
<path d="M412.151 67.765V60.9322C412.151 59.3306 413.449 58.0322 415.051 58.0322H441.051C442.652 58.0322 443.951 59.3306 443.951 60.9322V67.765C443.951 69.3666 442.652 70.665 441.051 70.665H415.051C413.449 70.665 412.151 69.3666 412.151 67.765Z" fill="white"/>
<path d="M412.151 90.8012V85.4546C412.151 83.853 413.449 82.5546 415.051 82.5546H424.042C425.643 82.5546 426.942 83.853 426.942 85.4546V90.8012C426.942 92.4028 425.643 93.7012 424.042 93.7012H415.051C413.449 93.7012 412.151 92.4028 412.151 90.8012Z" fill="white"/>
<path d="M412.151 114.58V108.491C412.151 106.889 413.449 105.591 415.051 105.591H441.051C442.652 105.591 443.951 106.889 443.951 108.491V114.58C443.951 116.182 442.652 117.48 441.051 117.48H415.051C413.449 117.48 412.151 116.182 412.151 114.58Z" fill="white"/>
</svg>
