<svg width="119" height="45" viewBox="0 0 119 45" fill="none" xmlns="http://www.w3.org/2000/svg">
<g id="Frame 21">
<rect width="119" height="45" rx="7.21715" fill="#383E50"/>
<g id="Vector 10">
<path d="M22.9238 20.8799H17.4128C16.8606 20.8799 16.4128 21.3276 16.4128 21.8799V28.6593C16.4128 29.2116 16.8606 29.6593 17.4128 29.6593H20.4712C21.0235 29.6593 21.4712 29.2116 21.4712 28.6593V26.8087C21.4712 26.2564 21.9189 25.8087 22.4712 25.8087H27.8289C28.3812 25.8087 28.8289 25.361 28.8289 24.8087V18.0293C28.8289 17.477 28.3812 17.0293 27.8289 17.0293H24.9238C24.3715 17.0293 23.9238 17.477 23.9238 18.0293V19.8799C23.9238 20.4322 23.4761 20.8799 22.9238 20.8799Z" fill="#F5F3F3"/>
<path d="M32.8143 29.1228V17.5658C32.8143 17.2695 32.5741 17.0293 32.2778 17.0293C31.9815 17.0293 31.7413 17.2695 31.7413 17.5658V29.1228C31.7413 29.4191 31.9815 29.6593 32.2778 29.6593C32.5741 29.6593 32.8143 29.4191 32.8143 29.1228Z" fill="#F5F3F3"/>
<path d="M35.7267 28.6593V18.0293C35.7267 17.477 36.1744 17.0293 36.7267 17.0293H41.3179C41.8702 17.0293 42.3179 17.477 42.3179 18.0293V18.6477C42.3179 19.2 41.8702 19.6477 41.3179 19.6477H39.4858C38.9335 19.6477 38.4858 20.0954 38.4858 20.6477V21.1121C38.4858 21.6644 38.9335 22.1121 39.4858 22.1121H41.3179C41.8702 22.1121 42.3179 22.5598 42.3179 23.1121V23.4225C42.3179 23.9748 41.8702 24.4225 41.3179 24.4225H39.4858C38.9335 24.4225 38.4858 24.8702 38.4858 25.4225V28.6593C38.4858 29.2116 38.0381 29.6593 37.4858 29.6593H36.7267C36.1744 29.6593 35.7267 29.2116 35.7267 28.6593Z" fill="#F5F3F3"/>
<path d="M43.3909 18.6477V18.0293C43.3909 17.477 43.8386 17.0293 44.3909 17.0293H47.6677C47.877 17.0293 48.0809 17.0949 48.2508 17.2169L49.7185 18.2703C49.9803 18.4582 50.1355 18.7606 50.1355 19.0827V22.4917C50.1355 22.8312 49.9632 23.1475 49.6781 23.3317L48.2372 24.2625C48.0755 24.3669 47.8871 24.4225 47.6946 24.4225H44.3909C43.8386 24.4225 43.3909 23.9748 43.3909 23.4225V23.1121C43.3909 22.5598 43.8386 22.1121 44.3909 22.1121H46.223C46.7753 22.1121 47.223 21.6644 47.223 21.1121V20.6477C47.223 20.0954 46.7753 19.6477 46.223 19.6477H44.3909C43.8386 19.6477 43.3909 19.2 43.3909 18.6477Z" fill="#F5F3F3"/>
<path d="M52.4347 27.2018V18.0293C52.4347 17.477 52.8824 17.0293 53.4347 17.0293H54.1938C54.7461 17.0293 55.1938 17.477 55.1938 18.0293V25.8869C55.1938 26.4392 55.6416 26.8869 56.1938 26.8869H58.1792C58.7315 26.8869 59.1792 27.3346 59.1792 27.8869V28.6593C59.1792 29.2116 58.7315 29.6593 58.1792 29.6593H55.1084C54.867 29.6593 54.6337 29.572 54.4517 29.4134L52.778 27.9559C52.5599 27.766 52.4347 27.491 52.4347 27.2018Z" fill="#F5F3F3"/>
<path d="M64.2376 25.8869V18.0293C64.2376 17.477 64.6854 17.0293 65.2376 17.0293H65.9968C66.549 17.0293 66.9968 17.477 66.9968 18.0293V27.2018C66.9968 27.491 66.8716 27.766 66.6535 27.9559L64.9798 29.4134C64.7978 29.572 64.5645 29.6593 64.3231 29.6593H61.2522C60.7 29.6593 60.2522 29.2116 60.2522 28.6593V27.8869C60.2522 27.3346 60.7 26.8869 61.2522 26.8869H63.2376C63.7899 26.8869 64.2376 26.4392 64.2376 25.8869Z" fill="#F5F3F3"/>
<path d="M70.5223 28.3513V18.0293C70.5223 17.477 70.97 17.0293 71.5223 17.0293H76.2668C76.8191 17.0293 77.2668 17.477 77.2668 18.0293V18.6477C77.2668 19.2 76.8191 19.6477 76.2668 19.6477H74.4347C73.8824 19.6477 73.4347 20.0954 73.4347 20.6477V21.1121C73.4347 21.6644 73.8824 22.1121 74.4347 22.1121H76.2668C76.8191 22.1121 77.2668 22.5598 77.2668 23.1121V23.4225C77.2668 23.9748 76.8191 24.4225 76.2668 24.4225H74.4347C73.8824 24.4225 73.4347 24.8702 73.4347 25.4225V28.3513C73.4347 28.9035 72.987 29.3513 72.4347 29.3513H71.5223C70.97 29.3513 70.5223 28.9035 70.5223 28.3513Z" fill="#F5F3F3"/>
<path d="M78.1865 18.6477V18.0293C78.1865 17.477 78.6343 17.0293 79.1865 17.0293H82.5671C82.8066 17.0293 83.0382 17.1153 83.2197 17.2716L84.7369 18.5784C84.9575 18.7683 85.0844 19.045 85.0844 19.3361V21.7209C85.0844 22.1408 84.822 22.516 84.4275 22.6601L83.6496 22.9444C83.4987 22.9996 83.3982 23.1432 83.3982 23.3039C83.3982 23.4261 83.4565 23.5409 83.5552 23.613L84.6744 24.4309C84.932 24.6192 85.0844 24.9192 85.0844 25.2383V28.3513C85.0844 28.9035 84.6366 29.3513 84.0843 29.3513H83.4785C82.9262 29.3513 82.4785 28.9035 82.4785 28.3513V25.4225C82.4785 24.8702 82.0308 24.4225 81.4785 24.4225H79.1865C78.6343 24.4225 78.1865 23.9748 78.1865 23.4225V23.1121C78.1865 22.5598 78.6343 22.1121 79.1865 22.1121H81.4785C82.0308 22.1121 82.4785 21.6644 82.4785 21.1121V20.6477C82.4785 20.0954 82.0308 19.6477 81.4785 19.6477H79.1865C78.6343 19.6477 78.1865 19.2 78.1865 18.6477Z" fill="#F5F3F3"/>
<path d="M88.6099 28.3513V18.0293C88.6099 17.477 89.0576 17.0293 89.6099 17.0293H94.2011C94.7534 17.0293 95.2011 17.477 95.2011 18.0293V18.6477C95.2011 19.2 94.7534 19.6477 94.2011 19.6477H92.2157C91.6634 19.6477 91.2157 20.0954 91.2157 20.6477V21.1121C91.2157 21.6644 91.6634 22.1121 92.2157 22.1121H94.2011C94.7534 22.1121 95.2011 22.5598 95.2011 23.1121V23.4225C95.2011 23.9748 94.7534 24.4225 94.2011 24.4225H92.2157C91.6634 24.4225 91.2157 24.8702 91.2157 25.4225V25.8869C91.2157 26.4392 91.6634 26.8869 92.2157 26.8869H94.2011C94.7534 26.8869 95.2011 27.3346 95.2011 27.8869V28.3513C95.2011 28.9035 94.7534 29.3513 94.2011 29.3513H89.6099C89.0576 29.3513 88.6099 28.9035 88.6099 28.3513Z" fill="#F5F3F3"/>
<path d="M96.4274 18.6477V18.0293C96.4274 17.477 96.8751 17.0293 97.4274 17.0293H102.019C102.571 17.0293 103.019 17.477 103.019 18.0293V18.6477C103.019 19.2 102.571 19.6477 102.019 19.6477H97.4274C96.8751 19.6477 96.4274 19.2 96.4274 18.6477Z" fill="#F5F3F3"/>
<path d="M96.4274 23.4225V23.1121C96.4274 22.5598 96.8751 22.1121 97.4274 22.1121H98.4931C99.0454 22.1121 99.4931 22.5598 99.4931 23.1121V23.4225C99.4931 23.9748 99.0454 24.4225 98.4931 24.4225H97.4274C96.8751 24.4225 96.4274 23.9748 96.4274 23.4225Z" fill="#F5F3F3"/>
<path d="M96.4274 28.3513V27.8869C96.4274 27.3346 96.8751 26.8869 97.4274 26.8869H102.019C102.571 26.8869 103.019 27.3346 103.019 27.8869V28.3513C103.019 28.9035 102.571 29.3513 102.019 29.3513H97.4274C96.8751 29.3513 96.4274 28.9035 96.4274 28.3513Z" fill="#F5F3F3"/>
</g>
</g>
</svg>
